# Blender 4.3.1
# www.blender.org
mtllib asteroideee.mtl
o Sphere
v -0.000001 1.295180 -0.868819
v -0.000001 0.909330 -1.364793
v -0.000001 0.278876 -1.404621
v -0.000001 -0.311507 -1.569684
v -0.000000 -0.813810 -1.220788
v 0.132786 1.721200 -0.320575
v 0.384997 1.498319 -0.929464
v 0.434742 0.757592 -1.049559
v 0.500580 0.259791 -1.208508
v 0.719119 -0.372683 -1.736108
v 0.414649 -0.722765 -1.001051
v 0.398815 -1.551771 -0.962824
v 0.115512 -1.501166 -0.278870
v 0.230751 1.620510 -0.230751
v 0.717464 1.511054 -0.717464
v 0.936673 0.882707 -0.936673
v 0.803159 0.225742 -0.803159
v 0.817690 -0.229804 -0.817690
v 0.817234 -0.770666 -0.817234
v 0.808005 -1.700602 -0.808005
v 0.215547 -1.515704 -0.215547
v -0.000000 1.445234 -0.000000
v 0.281657 1.515869 -0.116666
v 0.756263 1.220799 -0.313254
v 1.345271 0.969903 -0.557230
v 1.098944 0.236348 -0.455197
v 0.917473 -0.197518 -0.380030
v 1.098473 -0.792710 -0.455002
v 0.890946 -1.436601 -0.369042
v 0.270466 -1.456822 -0.112031
v 0.289230 1.439662 0.000000
v 0.679966 1.015615 0.000000
v 1.507424 1.003939 0.000000
v 1.946694 0.386035 0.000000
v 1.187848 -0.236023 0.000000
v 1.315283 -0.876490 0.000000
v 1.009148 -1.502913 0.000000
v 0.274320 -1.366984 0.000000
v 0.251356 1.355999 0.104115
v 0.542961 0.879028 0.224902
v 1.063365 0.767504 0.440460
v 2.259793 0.484736 0.936037
v 1.778600 -0.381774 0.736721
v 1.408947 -1.015620 0.583605
v 0.815961 -1.316455 0.337982
v 0.231985 -1.253795 0.096091
v 0.178651 1.261359 0.178651
v 0.441340 0.932988 0.441340
v 0.922881 0.869769 0.922881
v 1.346179 0.377552 1.346180
v 0.954103 -0.267941 0.954103
v 0.919718 -0.866802 0.919719
v 0.477357 -1.008391 0.477357
v 0.152709 -1.082525 0.152709
v 0.090194 1.178681 0.217748
v 0.278769 1.087401 0.673008
v 0.418737 0.729851 1.010921
v 0.648203 0.336049 1.564900
v 0.573293 -0.297352 1.384052
v 0.322254 -0.562616 0.777991
v 0.238442 -0.931404 0.575649
v 0.072242 -0.950010 0.174407
v -0.000000 1.117496 0.223137
v -0.000000 0.933272 0.624340
v -0.000000 0.677601 1.015441
v -0.000000 0.290200 1.461904
v -0.000000 -0.249595 1.256502
v -0.000000 -0.669375 1.003039
v -0.000000 -1.188094 0.796479
v -0.000000 -0.910386 0.180648
v -0.085723 1.121734 0.206955
v -0.219518 0.858202 0.529963
v -0.417348 0.727443 1.007566
v -0.462387 0.240061 1.116300
v -0.377584 -0.196255 0.911569
v -0.406463 -0.708575 0.981287
v -0.361827 -1.408692 0.873527
v -0.069404 -0.913868 0.167557
v -0.172506 1.219001 0.172506
v -0.440474 0.931177 0.440474
v -0.854383 0.805514 0.854383
v -1.283196 0.359944 1.283195
v -0.852385 -0.239504 0.852385
v -0.743812 -0.701790 0.743811
v -0.604021 -1.273561 0.604021
v -0.134806 -0.959112 0.134806
v 0.000000 -1.193776 -0.000000
v -0.247759 1.337018 0.102625
v -0.670311 1.083080 0.277652
v -1.145198 0.826257 0.474356
v -1.349144 0.289883 0.558833
v -1.628107 -0.349573 0.674384
v -1.328669 -0.957983 0.550352
v -0.750409 -1.211420 0.310829
v -0.194118 -1.054006 0.080406
v -0.285455 1.421263 -0.000000
v -0.648054 0.968377 -0.000000
v -1.250851 0.833751 -0.000000
v -1.190129 0.236474 -0.000000
v -1.377319 -0.273478 -0.000000
v -1.170984 -0.780774 -0.000000
v -0.772025 -1.151895 -0.000000
v -0.236677 -1.183500 -0.000000
v -0.281298 1.513972 -0.116517
v -0.510328 0.826740 -0.211385
v -1.179410 0.850821 -0.488528
v -0.982377 0.211406 -0.406914
v -1.179060 -0.253490 -0.488383
v -0.948353 -0.684930 -0.392821
v -0.838634 -1.352783 -0.347374
v -0.241883 -1.306017 -0.100191
v -0.230492 1.618727 -0.230492
v -0.636370 1.341284 -0.636370
v -0.934053 0.880249 -0.934053
v -1.100287 0.308808 -1.100287
v -0.988076 -0.277438 -0.988076
v -0.880629 -0.830134 -0.880630
v -0.687071 -1.447427 -0.687071
v -0.200095 -1.409181 -0.200094
v -0.130355 1.690238 -0.314706
v -0.387720 1.508858 -0.936041
v -0.502893 0.875721 -1.214093
v -0.479476 0.248889 -1.157559
v -0.526332 -0.273093 -1.270679
v -0.439596 -0.766006 -1.061279
v -0.426963 -1.660659 -1.030781
v -0.112585 -1.463892 -0.271806
v -0.000001 1.731626 -0.349126
v -0.000001 -1.635198 -1.098509
v -0.000000 -1.486745 -0.298889
vn -0.4572 0.2274 -0.8598
vn 0.2023 0.8842 -0.4210
vn -0.1294 0.6084 -0.7830
vn 0.4889 -0.4976 -0.7164
vn 0.4152 -0.0011 -0.9097
vn -0.1274 -0.9916 0.0206
vn 0.4762 -0.0496 -0.8780
vn 0.1254 0.7256 0.6766
vn -0.3298 -0.9434 -0.0353
vn 0.1946 0.7511 -0.6308
vn 0.4729 0.4327 -0.7676
vn 0.8024 0.0446 -0.5952
vn 0.5968 0.7060 0.3812
vn 0.7053 -0.3968 -0.5875
vn 0.4651 -0.5673 -0.6796
vn 0.7395 -0.3176 -0.5935
vn 0.9218 0.3097 -0.2330
vn 0.0118 0.8351 0.5499
vn 0.1964 -0.8934 0.4040
vn 0.4117 0.2927 -0.8630
vn 0.6242 0.5752 0.5288
vn 0.0820 0.7524 0.6535
vn -0.4579 -0.6855 0.5660
vn 0.8703 -0.4267 -0.2461
vn 0.8435 -0.4122 -0.3443
vn 0.9005 0.1792 -0.3961
vn 0.5624 0.5089 0.6517
vn -0.1424 -0.7698 0.6222
vn 0.3029 0.9319 -0.1996
vn 0.0161 0.8376 0.5461
vn -0.4115 -0.6810 0.6057
vn 0.1342 -0.5727 0.8087
vn 0.5234 -0.8061 -0.2762
vn 0.8622 -0.4438 -0.2442
vn -0.0256 0.8613 0.5075
vn 0.7051 0.6911 0.1588
vn 0.7273 0.6831 0.0670
vn 0.0150 0.7768 0.6296
vn -0.3419 -0.6792 0.6494
vn -0.4381 -0.6939 0.5715
vn -0.3838 -0.6962 0.6066
vn 0.5480 -0.0793 0.8327
vn 0.2548 0.9584 -0.1290
vn 0.7306 -0.2660 0.6289
vn -0.5619 -0.4823 0.6721
vn -0.0796 0.6538 0.7525
vn -0.1126 0.7872 0.6063
vn -0.4249 -0.6729 0.6055
vn 0.6107 0.7861 -0.0954
vn 0.1844 -0.5047 0.8434
vn 0.3513 -0.9024 0.2494
vn 0.8187 0.5298 0.2214
vn -0.2311 -0.3460 0.9093
vn -0.7758 -0.5277 0.3458
vn -0.0868 0.7524 0.6529
vn -0.1932 0.5807 0.7909
vn -0.4387 -0.4586 0.7728
vn -0.5091 0.7822 0.3592
vn 0.7830 -0.2301 0.5779
vn 0.6096 -0.4097 0.6786
vn -0.0981 0.8330 0.5445
vn -0.6427 -0.4242 0.6379
vn 0.5149 -0.7815 -0.3524
vn 0.0075 0.2171 0.9761
vn -0.4741 -0.4150 0.7765
vn -0.3154 0.5341 0.7844
vn -0.0764 0.7878 0.6111
vn -0.0662 0.1382 0.9882
vn 0.1073 0.9467 0.3037
vn 0.0922 -0.5366 0.8388
vn 0.2809 -0.1285 0.9511
vn 0.2427 0.5412 0.8051
vn -0.2167 -0.5248 0.8232
vn -0.1272 0.5582 0.8199
vn 0.2579 0.5188 0.8151
vn 0.4127 -0.8174 -0.4019
vn 0.0503 0.9406 0.3359
vn -0.2521 0.2775 0.9271
vn -0.5492 -0.3227 0.7709
vn 0.2093 0.4870 0.8480
vn -0.1309 -0.5329 0.8360
vn 0.0359 0.5260 0.8497
vn -0.0974 -0.2492 0.9635
vn -0.7286 0.3680 0.5777
vn 0.0766 -0.8620 -0.5011
vn -0.3476 0.8834 0.3142
vn -0.8991 0.3301 -0.2874
vn 0.0317 -0.6474 0.7615
vn 0.1006 0.5536 0.8267
vn -0.6096 0.4881 0.6246
vn -0.1769 -0.2795 0.9437
vn -0.0628 -0.5240 0.8494
vn 0.1534 -0.9484 -0.2776
vn -0.9716 -0.0988 0.2149
vn -0.8640 -0.3514 -0.3607
vn -0.2009 0.8996 -0.3877
vn -0.7999 0.4145 -0.4339
vn -0.6782 -0.7291 -0.0925
vn -0.9384 0.2859 0.1940
vn 0.0009 -0.4977 0.8673
vn -0.0579 -0.9812 -0.1839
vn -0.8528 -0.3159 -0.4159
vn -0.0638 0.7597 0.6471
vn -0.7946 -0.5009 -0.3431
vn 0.2149 0.8703 -0.4431
vn -0.9767 -0.1594 0.1437
vn -0.9546 -0.1389 0.2634
vn -0.0227 -0.5220 0.8527
vn -0.7142 0.6442 0.2738
vn -0.1477 -0.8436 0.5162
vn -0.8254 0.3653 -0.4304
vn -0.0657 0.7820 0.6198
vn -0.6805 0.6535 -0.3316
vn -0.5101 0.2257 -0.8300
vn -0.9761 -0.2043 -0.0747
vn -0.0274 -0.6321 0.7744
vn -0.8074 0.3541 -0.4719
vn -0.5647 0.8253 -0.0070
vn -0.1340 -0.9685 0.2100
vn -0.5429 -0.0955 -0.8343
vn -0.8829 -0.3682 -0.2913
vn -0.0866 0.7524 0.6530
vn 0.0234 -0.7139 0.6998
vn -0.8063 -0.0315 -0.5906
vn -0.4724 -0.4137 -0.7782
vn -0.2304 0.7680 -0.5975
vn -0.2764 -0.8963 0.3469
vn -0.4511 -0.0969 -0.8872
vn -0.3817 0.7078 -0.5944
vn -0.0344 0.7816 0.6228
vn 0.0214 -0.6910 0.7225
vn -0.1465 -0.1457 -0.9784
vn -0.3497 -0.4178 -0.8386
vn 0.0873 -0.9794 0.1818
vn -0.0778 0.7708 0.6323
vn 0.1026 -0.7265 0.6795
vn 0.2703 -0.2442 -0.9313
vn 0.3555 0.3266 -0.8757
vn 0.6804 -0.3202 -0.6592
vn -0.2060 -0.6988 0.6850
vn -0.0755 0.7709 0.6324
vn 0.3498 -0.0128 -0.9367
vn 0.0632 0.9854 -0.1584
vn 0.5847 0.6403 -0.4981
vn -0.4665 0.2382 -0.8518
vn 0.9497 0.2904 0.1174
vn 0.3614 0.2511 -0.8980
vn -0.1848 -0.8554 -0.4839
vn 0.7711 -0.6365 0.0163
vn 0.1421 -0.9732 0.1807
vn 0.3448 -0.1382 -0.9284
vn -0.1505 -0.9885 0.0108
vn -0.4689 0.7489 -0.4683
vn 0.1760 0.1690 -0.9698
vn 0.8824 0.4412 -0.1633
vn 0.5876 0.6829 0.4340
vn 0.9737 0.0382 -0.2248
vn 0.7269 -0.4007 -0.5578
vn 0.9838 -0.0115 -0.1789
vn 0.7898 -0.0012 -0.6133
vn 0.3327 0.9304 -0.1536
vn 0.2081 -0.8551 0.4749
vn 0.9087 -0.3390 -0.2437
vn 0.5980 0.6882 0.4107
vn 0.5288 -0.6451 -0.5516
vn 0.8281 -0.3276 -0.4549
vn 0.7899 0.3071 -0.5308
vn 0.5709 0.5260 0.6304
vn -0.0364 -0.9855 -0.1654
vn 0.5394 0.3835 0.7497
vn 0.4126 -0.4156 0.8106
vn 0.7168 -0.3503 0.6029
vn 0.7854 0.1563 -0.5989
vn 0.0124 0.8758 0.4826
vn 0.3285 0.4156 0.8481
vn 0.0615 0.9236 0.3784
vn -0.1666 -0.9005 0.4016
vn 0.1606 -0.7946 0.5855
vn 0.1963 -0.3369 0.9209
vn 0.2551 0.9595 -0.1194
vn 0.2690 -0.6141 0.7420
vn -0.3434 -0.6736 0.6545
vn 0.1676 0.7217 0.6716
vn -0.1445 0.5451 0.8258
vn -0.4608 -0.6008 0.6532
vn -0.2504 -0.0412 0.9673
vn -0.2006 0.9252 0.3220
vn -0.1339 -0.2574 0.9570
vn -0.1490 -0.9212 0.3594
vn -0.1523 0.7747 0.6138
vn -0.4985 0.7867 0.3642
vn 0.6030 -0.4847 0.6336
vn -0.1739 -0.8737 0.4544
vn -0.4216 0.5302 0.7356
vn -0.5508 -0.2968 0.7800
vn -0.4531 -0.8619 0.2276
vn -0.4964 0.6557 0.5689
vn -0.4401 0.8160 0.3747
vn -0.6499 -0.3929 0.6506
vn -0.4624 0.7422 0.4852
vn -0.0722 -0.4351 0.8975
vn -0.0140 -0.3699 0.9290
vn -0.2842 0.2337 0.9299
vn -0.0001 0.7749 0.6321
vn 0.1223 -0.9047 -0.4080
vn 0.1745 0.9289 0.3266
vn -0.7581 -0.6389 0.1308
vn -0.7709 -0.1446 0.6203
vn -0.0410 0.7010 0.7119
vn -0.5678 0.1423 0.8107
vn -0.7212 0.6928 -0.0013
vn 0.6326 -0.7325 -0.2514
vn 0.2216 0.8492 0.4794
vn -0.8943 0.3369 -0.2945
vn -0.8762 -0.3054 0.3728
vn -0.5847 0.7322 -0.3493
vn -0.1950 -0.2674 0.9436
vn 0.7206 -0.6238 0.3025
vn -0.9094 0.3005 -0.2875
vn -0.8638 -0.3516 -0.3609
vn -0.4367 0.8927 0.1114
vn -0.8813 0.3235 -0.3445
vn -0.5006 -0.7718 -0.3920
vn -0.5724 0.4583 -0.6800
vn 0.4467 -0.5733 0.6868
vn -0.9840 -0.1000 -0.1474
vn -0.7884 -0.3207 -0.5250
vn -0.2180 0.9760 0.0022
vn -0.8425 0.4163 -0.3419
vn -0.5931 -0.6376 -0.4917
vn -0.8384 0.2100 0.5029
vn -0.0373 -0.6317 0.7743
vn -0.9527 -0.2779 0.1230
vn -0.2989 0.5631 0.7704
vn -0.1097 -0.2071 -0.9722
vn -0.8165 -0.5004 -0.2881
vn -0.4016 0.6655 -0.6291
vn -0.5735 0.8191 0.0136
vn -0.2153 -0.7230 0.6565
vn -0.0595 0.2948 -0.9537
vn -0.9821 -0.1672 -0.0866
vn -0.3053 -0.3708 -0.8771
vn -0.3373 -0.2424 -0.9096
vn 0.3337 0.3275 -0.8839
vn -0.2763 -0.8964 0.3467
vn -0.2902 0.0603 -0.9551
vn 0.4923 0.7593 -0.4256
vn -0.3444 -0.0368 -0.9381
vn -0.4531 -0.5086 -0.7322
vn -0.1212 -0.9475 0.2958
vn 0.7801 0.2816 -0.5587
vn 0.5978 0.0505 -0.8001
vn 0.7366 -0.2752 -0.6178
vn 0.4099 -0.0498 -0.9108
vn 0.7025 0.7110 0.0308
vn -0.2263 0.1411 -0.9638
vt 0.823171 0.653626
vt 0.706545 0.582189
vt 0.695299 0.683783
vt 0.876900 0.675033
vt 0.681670 0.753867
vt 0.850174 0.628250
vt 0.847924 0.532574
vt 0.854829 0.585809
vt 1.000000 0.444588
vt 0.769045 0.366628
vt 0.758356 0.410639
vt 0.797049 0.412198
vt 0.784893 0.291561
vt 0.535383 0.224532
vt 0.742132 0.197436
vt 0.544813 0.204811
vt 0.481421 0.876684
vt 0.581142 0.911787
vt 0.592689 0.951479
vt 0.542044 0.184161
vt 0.762200 0.099360
vt 0.712243 0.872925
vt 0.580822 0.966750
vt 0.794491 0.893097
vt 0.794751 0.855896
vt 0.801464 0.520152
vt 0.555391 0.873852
vt 0.699970 0.379758
vt 0.758677 0.463873
vt 0.638397 0.306496
vt 0.784204 0.343939
vt 0.672047 0.110405
vt 0.736887 0.222215
vt 0.716174 0.583250
vt 0.576732 0.691740
vt 0.524322 0.181676
vt 0.522570 0.847463
vt 0.465419 0.265296
vt 0.512841 0.115087
vt 0.538431 0.239649
vt 0.648250 0.136868
vt 0.594122 0.051714
vt 0.486676 0.824134
vt 0.490199 0.660143
vt 0.497906 0.192193
vt 0.502903 0.552162
vt 0.254558 0.342624
vt 0.328820 0.269461
vt 0.480985 0.097983
vt 0.497095 0.044418
vt 0.454621 0.802968
vt 0.413454 0.674990
vt 0.332893 0.570144
vt 0.469453 0.215255
vt 0.335171 0.137282
vt 0.402361 0.206647
vt 0.099326 0.426349
vt 0.155032 0.292307
vt 0.446432 0.258183
vt 0.241190 0.593857
vt 0.431108 0.788525
vt 0.323881 0.722724
vt 0.302574 0.307832
vt 0.347872 0.251743
vt 0.064886 0.510682
vt 0.131750 0.394449
vt 0.431809 0.295506
vt 0.191945 0.631303
vt 0.303747 0.715743
vt 0.417403 0.781630
vt 0.206071 0.315500
vt 0.264048 0.217810
vt 0.119819 0.573866
vt 0.188433 0.474730
vt 0.421761 0.313103
vt 0.149407 0.691002
vt 0.304415 0.724719
vt 0.410761 0.792067
vt 0.171319 0.362646
vt 0.158130 0.523892
vt 0.000000 0.681549
vt 0.208777 0.218805
vt 0.147398 0.761348
vt 0.303197 0.769252
vt 0.409402 0.826928
vt 0.416849 0.322289
vt 0.181658 0.703368
vt 0.134075 0.590824
vt 0.251463 0.293413
vt 0.199830 0.418966
vt 0.320430 0.835001
vt 0.419339 0.867173
vt 0.219026 0.808687
vt 0.417231 0.323308
vt 0.316328 0.610920
vt 0.334881 0.700021
vt 0.307560 0.339965
vt 0.194648 0.444099
vt 0.396023 0.816355
vt 0.442873 0.896350
vt 0.423463 0.314606
vt 0.327895 0.837597
vt 0.337551 0.488132
vt 0.449896 0.616688
vt 0.455159 0.691982
vt 0.378625 0.370587
vt 0.466827 0.778476
vt 0.475637 0.924450
vt 0.437636 0.298473
vt 0.454838 0.853401
vt 0.451669 0.501942
vt 0.584529 0.614680
vt 0.602142 0.751149
vt 0.450522 0.357538
vt 0.562427 0.929578
vt 0.514258 0.951727
vt 0.460517 0.280435
vt 0.591044 0.856076
vt 0.568152 0.488866
vt 0.715620 0.829192
vt 0.674811 0.961703
vt 0.551934 0.965336
vt 0.488522 0.260421
vt 0.542610 0.339470
vt 0.515480 0.242397
vt 0.663637 0.462566
vt 0.646721 0.286740
vt 0.828078 0.798063
vt 0.716712 0.242183
vt 0.816413 0.704432
s 0
f 3/1/1 124/2/1 123/3/1
f 16/4/2 24/5/2 25/6/2
f 4/7/3 9/8/3 10/9/3
f 4/7/4 11/10/4 5/11/4
f 11/10/5 18/12/5 19/13/5
f 130/14/6 12/15/6 13/16/6
f 12/15/7 5/11/7 11/10/7
f 22/17/8 14/18/8 6/19/8
f 21/20/9 12/15/9 20/21/9
f 6/19/10 1/22/10 128/23/10
f 16/4/11 7/24/11 15/25/11
f 18/12/12 9/8/12 17/26/12
f 24/5/13 14/18/13 23/27/13
f 27/28/14 17/26/14 26/29/14
f 35/30/15 26/29/15 34/31/15
f 29/32/16 19/13/16 28/33/16
f 28/33/17 18/12/17 27/28/17
f 33/34/18 24/5/18 32/35/18
f 21/20/19 29/32/19 30/36/19
f 26/29/20 33/34/20 34/31/20
f 24/5/21 31/37/21 32/35/21
f 22/17/22 23/27/22 14/18/22
f 87/38/23 13/16/23 21/20/23
f 43/39/24 34/31/24 42/40/24
f 29/32/25 36/41/25 37/42/25
f 28/33/26 35/30/26 36/41/26
f 32/35/27 39/43/27 40/44/27
f 30/36/28 37/42/28 38/45/28
f 34/31/29 41/46/29 42/40/29
f 22/17/30 31/37/30 23/27/30
f 87/38/31 21/20/31 30/36/31
f 43/39/32 50/47/32 51/48/32
f 45/49/33 36/41/33 44/50/33
f 36/41/34 43/39/34 44/50/34
f 41/46/35 32/35/35 40/44/35
f 40/44/36 47/51/36 48/52/36
f 50/47/37 41/46/37 49/53/37
f 22/17/38 39/43/38 31/37/38
f 38/45/39 45/49/39 46/54/39
f 87/38/40 30/36/40 38/45/40
f 45/49/41 52/55/41 53/56/41
f 44/50/42 51/48/42 52/55/42
f 41/46/43 48/52/43 49/53/43
f 51/48/44 58/57/44 59/58/44
f 46/54/45 53/56/45 54/59/45
f 22/17/46 47/51/46 39/43/46
f 58/57/47 49/53/47 57/60/47
f 87/38/48 38/45/48 46/54/48
f 48/52/49 55/61/49 56/62/49
f 53/56/50 60/63/50 61/64/50
f 60/63/51 51/48/51 59/58/51
f 57/60/52 48/52/52 56/62/52
f 59/58/53 66/65/53 67/66/53
f 54/59/54 61/64/54 62/67/54
f 66/65/55 57/60/55 65/68/55
f 22/17/56 55/61/56 47/51/56
f 87/38/57 46/54/57 54/59/57
f 64/69/58 55/61/58 63/70/58
f 61/64/59 68/71/59 69/72/59
f 60/63/60 67/66/60 68/71/60
f 57/60/61 64/69/61 65/68/61
f 67/66/62 74/73/62 75/74/62
f 70/75/63 61/64/63 69/72/63
f 74/73/64 65/68/64 73/76/64
f 87/38/65 54/59/65 62/67/65
f 22/17/66 63/70/66 55/61/66
f 72/77/67 63/70/67 71/78/67
f 68/71/68 75/74/68 76/79/68
f 65/68/69 72/77/69 73/76/69
f 83/80/70 74/73/70 82/81/70
f 69/72/71 76/79/71 77/82/71
f 74/73/72 81/83/72 82/81/72
f 87/38/73 62/67/73 70/75/73
f 22/17/74 71/78/74 63/70/74
f 80/84/75 71/78/75 79/85/75
f 78/86/76 69/72/76 77/82/76
f 73/76/77 80/84/77 81/83/77
f 83/80/78 91/87/78 92/88/78
f 85/89/79 76/79/79 84/90/79
f 22/17/80 79/85/80 71/78/80
f 87/38/81 70/75/81 78/86/81
f 89/91/82 79/85/82 88/92/82
f 84/90/83 75/74/83 83/80/83
f 91/87/84 81/83/84 90/93/84
f 86/94/85 77/82/85 85/89/85
f 81/83/86 89/91/86 90/93/86
f 100/95/87 91/87/87 99/96/87
f 94/97/88 84/90/88 93/98/88
f 22/17/89 88/92/89 79/85/89
f 97/99/90 88/92/90 96/100/90
f 93/98/91 83/80/91 92/88/91
f 87/38/92 78/86/92 86/94/92
f 95/101/93 85/89/93 94/97/93
f 99/96/94 90/93/94 98/102/94
f 93/98/95 100/95/95 101/103/95
f 98/102/96 89/91/96 97/99/96
f 108/104/97 99/96/97 107/105/97
f 94/97/98 101/103/98 102/106/98
f 105/107/99 96/100/99 104/108/99
f 87/38/100 86/94/100 95/101/100
f 103/109/101 94/97/101 102/106/101
f 99/96/102 106/110/102 107/105/102
f 22/17/103 96/100/103 88/92/103
f 109/111/104 100/95/104 108/104/104
f 106/110/105 97/99/105 105/107/105
f 116/112/106 107/105/106 115/113/106
f 102/106/107 109/111/107 110/114/107
f 87/38/108 95/101/108 103/109/108
f 113/115/109 104/108/109 112/116/109
f 111/117/110 102/106/110 110/114/110
f 115/113/111 106/110/111 114/118/111
f 22/17/112 104/108/112 96/100/112
f 106/110/113 113/115/113 114/118/113
f 116/112/114 123/3/114 124/2/114
f 109/111/115 116/112/115 117/119/115
f 87/38/116 103/109/116 111/117/116
f 122/120/117 113/115/117 121/121/117
f 113/115/118 120/122/118 121/121/118
f 119/123/119 110/114/119 118/124/119
f 123/3/120 114/118/120 122/120/120
f 110/114/121 117/119/121 118/124/121
f 22/17/122 112/116/122 104/108/122
f 87/38/123 127/125/123 130/14/123
f 118/124/124 125/126/124 126/127/124
f 125/126/125 116/112/125 124/2/125
f 122/120/126 1/22/126 2/128/126
f 127/125/127 118/124/127 126/127/127
f 122/120/128 3/1/128 123/3/128
f 1/22/129 120/122/129 128/23/129
f 22/17/130 120/122/130 112/116/130
f 87/38/131 111/117/131 119/123/131
f 126/127/132 5/11/132 129/129/132
f 124/2/133 5/11/133 125/126/133
f 130/14/134 126/127/134 129/129/134
f 22/17/135 128/23/135 120/122/135
f 87/38/136 119/123/136 127/125/136
f 17/26/137 8/130/137 16/4/137
f 3/1/138 8/130/138 9/8/138
f 26/29/139 16/4/139 25/6/139
f 87/38/140 130/14/140 13/16/140
f 22/17/141 6/19/141 128/23/141
f 12/15/142 19/13/142 20/21/142
f 7/24/143 14/18/143 15/25/143
f 1/22/144 8/130/144 2/128/144
f 3/1/145 4/7/145 124/2/145
f 16/4/146 15/25/146 24/5/146
f 4/7/147 3/1/147 9/8/147
f 4/7/148 10/9/148 11/10/148
f 11/10/149 10/9/149 18/12/149
f 130/14/150 129/129/150 12/15/150
f 12/15/151 129/129/151 5/11/151
f 21/20/152 13/16/152 12/15/152
f 6/19/153 7/24/153 1/22/153
f 16/4/154 8/130/154 7/24/154
f 18/12/155 10/9/155 9/8/155
f 24/5/156 15/25/156 14/18/156
f 27/28/157 18/12/157 17/26/157
f 35/30/158 27/28/158 26/29/158
f 29/32/159 20/21/159 19/13/159
f 28/33/160 19/13/160 18/12/160
f 33/34/161 25/6/161 24/5/161
f 21/20/162 20/21/162 29/32/162
f 26/29/163 25/6/163 33/34/163
f 24/5/164 23/27/164 31/37/164
f 43/39/165 35/30/165 34/31/165
f 29/32/166 28/33/166 36/41/166
f 28/33/167 27/28/167 35/30/167
f 32/35/168 31/37/168 39/43/168
f 30/36/169 29/32/169 37/42/169
f 34/31/170 33/34/170 41/46/170
f 43/39/171 42/40/171 50/47/171
f 45/49/172 37/42/172 36/41/172
f 36/41/173 35/30/173 43/39/173
f 41/46/174 33/34/174 32/35/174
f 40/44/175 39/43/175 47/51/175
f 50/47/176 42/40/176 41/46/176
f 38/45/177 37/42/177 45/49/177
f 45/49/178 44/50/178 52/55/178
f 44/50/179 43/39/179 51/48/179
f 41/46/180 40/44/180 48/52/180
f 51/48/181 50/47/181 58/57/181
f 46/54/182 45/49/182 53/56/182
f 58/57/183 50/47/183 49/53/183
f 48/52/184 47/51/184 55/61/184
f 53/56/185 52/55/185 60/63/185
f 60/63/186 52/55/186 51/48/186
f 57/60/187 49/53/187 48/52/187
f 59/58/188 58/57/188 66/65/188
f 54/59/189 53/56/189 61/64/189
f 66/65/190 58/57/190 57/60/190
f 64/69/191 56/62/191 55/61/191
f 61/64/192 60/63/192 68/71/192
f 60/63/193 59/58/193 67/66/193
f 57/60/194 56/62/194 64/69/194
f 67/66/195 66/65/195 74/73/195
f 70/75/196 62/67/196 61/64/196
f 74/73/197 66/65/197 65/68/197
f 72/77/198 64/69/198 63/70/198
f 68/71/199 67/66/199 75/74/199
f 65/68/200 64/69/200 72/77/200
f 83/80/201 75/74/201 74/73/201
f 69/72/202 68/71/202 76/79/202
f 74/73/203 73/76/203 81/83/203
f 80/84/204 72/77/204 71/78/204
f 78/86/205 70/75/205 69/72/205
f 73/76/206 72/77/206 80/84/206
f 83/80/207 82/81/207 91/87/207
f 85/89/208 77/82/208 76/79/208
f 89/91/209 80/84/209 79/85/209
f 84/90/210 76/79/210 75/74/210
f 91/87/211 82/81/211 81/83/211
f 86/94/212 78/86/212 77/82/212
f 81/83/213 80/84/213 89/91/213
f 100/95/214 92/88/214 91/87/214
f 94/97/215 85/89/215 84/90/215
f 97/99/216 89/91/216 88/92/216
f 93/98/217 84/90/217 83/80/217
f 95/101/218 86/94/218 85/89/218
f 99/96/219 91/87/219 90/93/219
f 93/98/220 92/88/220 100/95/220
f 98/102/221 90/93/221 89/91/221
f 108/104/222 100/95/222 99/96/222
f 94/97/223 93/98/223 101/103/223
f 105/107/224 97/99/224 96/100/224
f 103/109/225 95/101/225 94/97/225
f 99/96/226 98/102/226 106/110/226
f 109/111/227 101/103/227 100/95/227
f 106/110/228 98/102/228 97/99/228
f 116/112/229 108/104/229 107/105/229
f 102/106/230 101/103/230 109/111/230
f 113/115/231 105/107/231 104/108/231
f 111/117/232 103/109/232 102/106/232
f 115/113/233 107/105/233 106/110/233
f 106/110/234 105/107/234 113/115/234
f 116/112/235 115/113/235 123/3/235
f 109/111/236 108/104/236 116/112/236
f 122/120/237 114/118/237 113/115/237
f 113/115/238 112/116/238 120/122/238
f 119/123/239 111/117/239 110/114/239
f 123/3/240 115/113/240 114/118/240
f 110/114/241 109/111/241 117/119/241
f 118/124/242 117/119/242 125/126/242
f 125/126/243 117/119/243 116/112/243
f 122/120/244 121/121/244 1/22/244
f 127/125/245 119/123/245 118/124/245
f 122/120/246 2/128/246 3/1/246
f 1/22/247 121/121/247 120/122/247
f 126/127/248 125/126/248 5/11/248
f 124/2/249 4/7/249 5/11/249
f 130/14/250 127/125/250 126/127/250
f 17/26/251 9/8/251 8/130/251
f 3/1/252 2/128/252 8/130/252
f 26/29/253 17/26/253 16/4/253
f 12/15/254 11/10/254 19/13/254
f 7/24/255 6/19/255 14/18/255
f 1/22/256 7/24/256 8/130/256
