# Blender 4.2.3 LTS
# www.blender.org
o Plane
v -0.342611 0.115661 0.131564
v -0.202896 -0.023702 0.186318
v -0.301393 -0.031864 0.198654
v -0.336192 -0.022575 0.157633
v -0.398129 0.266717 0.573796
v -0.287094 -0.181321 -0.189316
v 0.000000 0.014454 -1.000201
v 0.000000 0.092422 -0.114012
v 0.000000 0.193178 0.263769
v 0.000000 0.094733 0.396748
v 0.000000 -0.044109 0.186290
v 0.000000 -0.146738 -0.142595
v -0.195631 -0.023404 0.199443
v -0.047430 0.092422 -0.114012
v -0.040604 0.193085 0.263769
v 0.000000 0.074408 0.365939
v 0.000000 -0.005134 0.245368
v -0.099066 -0.005134 0.236136
v 0.000000 0.081223 0.361443
v 0.000000 0.001681 0.240873
v -0.098647 0.001681 0.231640
v -0.211503 -0.023404 0.102395
v -0.358718 -0.045856 0.264593
v -0.656178 -0.220539 0.914967
v -0.426493 -0.131383 0.612823
v -0.403014 -0.046484 0.267148
v -0.535437 -0.136983 0.635624
v -0.583335 -0.136983 0.635624
v -0.205696 -0.024553 0.197831
v -0.472893 -0.125169 0.390220
v 0.342611 0.115661 0.131564
v 0.202896 -0.023702 0.186318
v 0.301393 -0.031864 0.198654
v 0.336192 -0.022575 0.157633
v 0.398129 0.266717 0.573796
v 0.287094 -0.181321 -0.189316
v 0.195631 -0.023404 0.199443
v 0.047430 0.092422 -0.114012
v 0.040604 0.193085 0.263769
v 0.099066 -0.005134 0.236136
v 0.098647 0.001681 0.231640
v 0.211503 -0.023404 0.102395
v 0.358718 -0.045856 0.264593
v 0.656178 -0.220539 0.914967
v 0.426493 -0.131383 0.612823
v 0.403014 -0.046484 0.267148
v 0.535437 -0.136983 0.635624
v 0.583335 -0.136983 0.635624
v 0.205696 -0.024553 0.197831
v 0.472893 -0.125169 0.390220
vn 0.7261 0.6734 -0.1389
vn 0.1426 -0.7562 0.6386
vn 0.7212 0.5662 -0.3992
vn -0.6281 -0.6796 0.3789
vn -0.9926 -0.0654 -0.1023
vn -0.9917 -0.0668 -0.1098
vn -0.5451 -0.7889 0.2838
vn 0.1218 -0.9247 0.3607
vn -0.0515 -0.8336 0.5499
vn -0.7600 0.3896 0.5202
vn -0.0022 0.9662 -0.2577
vn -0.0018 0.8037 0.5950
vn -0.0000 0.9962 -0.0876
vn -0.0807 -0.9515 0.2969
vn -0.6859 -0.7152 -0.1344
vn -0.7336 0.6724 -0.0984
vn -0.7830 0.6044 -0.1469
vn -0.0776 0.5490 0.8322
vn 0.8380 -0.3005 -0.4555
vn -0.0962 0.9952 0.0157
vn 0.6838 0.5631 0.4640
vn 0.0046 0.9495 0.3136
vn 0.2650 -0.9608 -0.0821
vn -0.1143 -0.8063 -0.5804
vn 0.0197 0.8373 0.5465
vn -0.8662 0.4585 -0.1987
vn -0.0000 0.9988 0.0481
vn 0.4716 -0.8732 -0.1227
vn 0.1706 0.7558 0.6322
vn -0.7443 -0.5613 -0.3620
vn -0.0513 -0.8336 0.5500
vn -0.7261 0.6734 -0.1389
vn -0.1426 -0.7562 0.6386
vn -0.7212 0.5662 -0.3992
vn 0.6281 -0.6796 0.3789
vn 0.9926 -0.0654 -0.1023
vn 0.9917 -0.0668 -0.1098
vn 0.5451 -0.7889 0.2838
vn -0.1218 -0.9247 0.3607
vn 0.0515 -0.8336 0.5499
vn 0.7600 0.3896 0.5202
vn -0.0000 0.9663 -0.2575
vn 0.0018 0.8037 0.5950
vn 0.0807 -0.9515 0.2969
vn 0.6859 -0.7152 -0.1344
vn 0.7336 0.6724 -0.0984
vn 0.7830 0.6044 -0.1469
vn 0.0776 0.5490 0.8322
vn -0.8376 -0.3357 -0.4309
vn 0.0962 0.9952 0.0157
vn -0.6838 0.5631 0.4640
vn -0.0046 0.9495 0.3136
vn -0.2650 -0.9608 -0.0821
vn 0.1143 -0.8063 -0.5804
vn -0.0197 0.8373 0.5465
vn 0.8662 0.4585 -0.1987
vn -0.4716 -0.8732 -0.1227
vn -0.1706 0.7558 0.6322
vn 0.7443 -0.5613 -0.3620
vn 0.0513 -0.8336 0.5500
vn -0.0777 0.5523 0.8300
vn 0.8376 -0.3357 -0.4309
vn -0.0850 0.9713 0.2220
vn -0.0000 0.9711 0.2385
vn -0.0000 0.9581 0.2866
vn 0.0022 0.9662 -0.2577
vn 0.0777 0.5523 0.8300
vn -0.8380 -0.3005 -0.4555
vn 0.0850 0.9713 0.2220
vt 0.930374 0.768644
vt 0.952086 0.709446
vt 0.955685 0.779547
vt 0.904747 0.779052
vt 0.914496 0.709446
vt 0.913755 0.775191
vt 0.930374 0.824514
vt 0.920628 0.777826
vt 0.930374 0.770185
vt 0.930374 0.828639
vt 0.498582 0.669900
vt 0.542189 0.730483
vt 0.542189 0.614686
vt 0.334388 0.925301
vt 0.394073 0.714627
vt 0.252498 0.873701
vt 0.580743 0.792451
vt 0.352429 0.634009
vt 0.336936 0.655452
vt 0.419748 0.922810
vt 0.424502 0.955135
vt 0.536972 0.901691
vt 1.154580 1.030901
vt 0.598841 0.767346
vt 0.236286 0.708339
vt 0.371229 0.696255
vt 0.229351 0.490403
vt 0.396127 0.754698
vt 0.163371 0.932856
vt 1.017892 0.794151
vt 1.253329 0.901855
vt 0.612935 0.878646
vt 0.117593 0.122039
vt 0.111933 0.042540
vt 0.111933 0.122531
vt 0.226886 0.031789
vt 0.152964 0.128691
vt 0.154295 0.133204
vt 0.027817 0.010212
vt 0.081855 0.187132
vt 0.079489 0.202471
vt 0.680069 0.499743
vt 0.688441 0.352952
vt 0.684772 0.436875
vt 0.742637 0.364814
vt 0.715634 0.348763
vt 0.641526 0.254077
vt 0.719795 0.569556
vt 0.719795 0.457293
vt 0.695931 0.495502
vt 0.719795 0.491429
vt 0.719795 0.560187
vt 0.731974 0.531196
vt 0.705473 0.423227
vt 0.713558 0.426472
vt 0.640521 0.497174
vt 0.630387 0.527850
vt 0.640521 0.577456
vt 0.660822 0.536895
vt 0.652615 0.497174
vt 0.652615 0.541807
vt 0.724895 0.455299
vt 0.733781 0.491429
vt 0.733781 0.423227
vt 0.751459 0.381734
vt 0.759605 0.431533
vt 0.759605 0.326691
vt 0.289523 0.662743
vt 0.357479 0.626135
vt 0.220693 0.680613
vt 0.225262 0.027320
vt 0.216932 0.764159
vt 0.117614 0.042385
vt 0.667888 0.422897
vt 0.695931 0.357404
vt 0.693127 0.441182
vt 0.215971 0.785507
vt 0.222536 0.639677
s 0
usemtl Material.001
f 1/1/1 5/2/1 2/3/1
f 2/4/2 5/5/2 3/6/2
f 1/1/3 2/3/3 6/7/3
f 3/6/4 5/5/4 4/8/4
f 4/8/5 5/5/5 1/9/5
f 4/8/6 1/9/6 6/10/6
f 3/6/7 4/8/7 6/10/7
f 2/4/8 3/6/8 6/10/8
f 20/11/9 19/12/9 21/13/9
f 15/14/10 13/15/10 10/16/10
f 8/17/11 15/18/11 9/19/11
f 9/20/12 15/21/12 10/22/12
f 7/23/13 14/24/13 8/17/13
f 11/25/14 13/26/14 12/27/14
f 12/28/15 13/29/15 7/30/15
f 7/31/16 13/15/16 14/32/16
f 14/32/17 13/15/17 15/14/17
f 20/33/18 18/34/18 17/35/18
f 18/36/19 19/37/19 16/38/19
f 7/39/20 22/40/20 13/41/20
f 24/42/21 23/43/21 27/44/21
f 26/45/22 23/46/22 29/47/22
f 24/48/23 30/49/23 25/50/23
f 29/51/24 30/52/24 26/53/24
f 23/54/25 26/55/25 30/49/25
f 26/56/26 30/57/26 27/58/26
f 27/59/27 30/60/27 28/61/27
f 25/50/28 30/49/28 23/54/28
f 23/62/29 30/63/29 29/64/29
f 28/65/30 30/66/30 24/67/30
f 18/68/31 13/69/31 17/70/31
f 31/1/32 32/3/32 35/2/32
f 32/4/33 33/6/33 35/5/33
f 31/1/34 36/7/34 32/3/34
f 33/6/35 34/8/35 35/5/35
f 34/8/36 31/9/36 35/5/36
f 34/8/37 36/10/37 31/9/37
f 33/6/38 36/10/38 34/8/38
f 32/4/39 36/10/39 33/6/39
f 20/11/40 41/13/40 19/12/40
f 39/14/41 10/16/41 37/15/41
f 8/17/42 39/18/42 38/24/42
f 9/20/43 10/22/43 39/21/43
f 7/23/13 8/17/13 38/24/13
f 11/25/44 12/27/44 37/26/44
f 12/28/45 7/30/45 37/29/45
f 7/31/46 38/32/46 37/15/46
f 38/32/47 39/14/47 37/15/47
f 40/34/48 20/33/48 17/35/48
f 40/36/49 19/37/49 41/71/49
f 7/39/50 37/41/50 42/40/50
f 44/42/51 47/44/51 43/43/51
f 46/45/52 49/47/52 43/46/52
f 44/48/53 45/50/53 50/49/53
f 49/51/54 46/53/54 50/52/54
f 43/54/55 50/49/55 46/55/55
f 46/56/56 47/58/56 50/57/56
f 47/59/27 48/61/27 50/60/27
f 45/50/57 43/54/57 50/49/57
f 43/62/58 49/64/58 50/63/58
f 48/65/59 44/67/59 50/66/59
f 40/68/60 37/69/60 16/72/60
f 8/17/42 14/24/42 15/18/42
f 20/33/61 21/73/61 18/34/61
f 18/36/62 21/71/62 19/37/62
f 24/42/63 25/74/63 23/43/63
f 23/43/64 26/75/64 27/44/64
f 27/44/65 28/76/65 24/42/65
f 18/68/31 16/72/31 10/77/31
f 13/69/31 11/78/31 17/70/31
f 18/68/31 10/77/31 13/69/31
f 8/17/66 9/19/66 39/18/66
f 40/34/67 41/73/67 20/33/67
f 40/36/68 16/38/68 19/37/68
f 44/42/65 48/76/65 47/44/65
f 47/44/64 46/75/64 43/43/64
f 43/43/69 45/74/69 44/42/69
f 40/68/60 17/70/60 11/78/60
f 37/69/60 10/77/60 16/72/60
f 40/68/60 11/78/60 37/69/60
